<?xml version="1.0" encoding="UTF-8" standalone="no"?>
<svg xmlns="http://www.w3.org/2000/svg" width="48" height="48" viewBox="0 0 48 48">
  <!-- Sweet Bee Character -->
  <g transform="translate(0,-1004.3622)">
    <!-- Head/Face -->
    <circle cx="24" cy="1016.3622" r="10" fill="#f1c40f" stroke="#000" stroke-width="1"/>
    <!-- Eyes -->
    <circle cx="20" cy="1014.3622" r="2" fill="#000"/>
    <circle cx="28" cy="1014.3622" r="2" fill="#000"/>
    <!-- Mouth -->
    <path d="M 21,1020.3622 C 24,1018.3622 27,1020.3622 27,1020.3622" fill="none" stroke="#000" stroke-width="1"/>
    <!-- Stripes -->
    <rect x="18" y="1012.3622" width="12" height="2" fill="#000" opacity="0.3"/>
    <rect x="18" y="1016.3622" width="12" height="2" fill="#000" opacity="0.3"/>
    <!-- Antennae -->
    <path d="M 20,1008.3622 C 18,1004.3622 16,1004.3622 16,1004.3622" fill="none" stroke="#000" stroke-width="1"/>
    <path d="M 28,1008.3622 C 30,1004.3622 32,1004.3622 32,1004.3622" fill="none" stroke="#000" stroke-width="1"/>
    <circle cx="16" cy="1004.3622" r="1" fill="#000"/>
    <circle cx="32" cy="1004.3622" r="1" fill="#000"/>
    <!-- Body -->
    <ellipse cx="24" cy="1032.3622" rx="8" ry="10" fill="#f1c40f" stroke="#000" stroke-width="1"/>
    <!-- Stripes on body -->
    <rect x="16" y="1028.3622" width="16" height="2" fill="#000" opacity="0.3"/>
    <rect x="16" y="1032.3622" width="16" height="2" fill="#000" opacity="0.3"/>
    <rect x="16" y="1036.3622" width="16" height="2" fill="#000" opacity="0.3"/>
    <!-- Wings -->
    <ellipse cx="16" cy="1028.3622" rx="4" ry="6" fill="#f1c40f" opacity="0.6" stroke="#000" stroke-width="0.5" transform="rotate(-30 16 1028.3622)"/>
    <ellipse cx="32" cy="1028.3622" rx="4" ry="6" fill="#f1c40f" opacity="0.6" stroke="#000" stroke-width="0.5" transform="rotate(30 32 1028.3622)"/>
    <!-- Legs -->
    <path d="M 20,1042.3622 L 19,1048.3622" fill="none" stroke="#000" stroke-width="1"/>
    <path d="M 24,1042.3622 L 24,1048.3622" fill="none" stroke="#000" stroke-width="1"/>
    <path d="M 28,1042.3622 L 29,1048.3622" fill="none" stroke="#000" stroke-width="1"/>
  </g>
</svg>