<?xml version="1.0" encoding="UTF-8" standalone="no"?>
<svg xmlns="http://www.w3.org/2000/svg" width="48" height="48" viewBox="0 0 48 48">
  <!-- Fionna and Cake -->
  <g transform="translate(0,-1004.3622)">
    <!-- Fionna -->
    <!-- Head/Face -->
    <circle cx="24" cy="1016.3622" r="8" fill="#f5d8b9" stroke="#000" stroke-width="1"/>
    <!-- Bunny Hat -->
    <rect x="16" y="1008.3622" width="16" height="10" rx="2" ry="2" fill="#fff" stroke="#000" stroke-width="1"/>
    <ellipse cx="18" cy="1006.3622" rx="1.5" ry="3" fill="#fff" stroke="#000" stroke-width="0.5"/>
    <ellipse cx="30" cy="1006.3622" rx="1.5" ry="3" fill="#fff" stroke="#000" stroke-width="0.5"/>
    <!-- Eyes -->
    <circle cx="21" cy="1016.3622" r="1.5" fill="#000"/>
    <circle cx="27" cy="1016.3622" r="1.5" fill="#000"/>
    <!-- Mouth -->
    <path d="M 22,1019.3622 C 24,1020.3622 26,1019.3622 26,1019.3622" fill="none" stroke="#000" stroke-width="0.8"/>
    <!-- Blonde Hair -->
    <path d="M 16,1018.3622 C 14,1020.3622 14,1022.3622 14,1022.3622" fill="none" stroke="#ffdb58" stroke-width="2"/>
    <path d="M 32,1018.3622 C 34,1020.3622 34,1022.3622 34,1022.3622" fill="none" stroke="#ffdb58" stroke-width="2"/>
    <!-- Body -->
    <rect x="20" y="1024.3622" width="8" height="10" fill="#5d97d9" stroke="#000" stroke-width="1"/>
    <!-- Skirt -->
    <path d="M 20,1034.3622 L 18,1038.3622 L 30,1038.3622 L 28,1034.3622 z" fill="#2980b9" stroke="#000" stroke-width="1"/>
    <!-- Arms -->
    <rect x="16" y="1024.3622" width="4" height="2" fill="#f5d8b9" stroke="#000" stroke-width="0.5"/>
    <rect x="28" y="1024.3622" width="4" height="2" fill="#f5d8b9" stroke="#000" stroke-width="0.5"/>
    <!-- Legs -->
    <rect x="20" y="1038.3622" width="3" height="6" fill="#f5d8b9" stroke="#000" stroke-width="0.5"/>
    <rect x="25" y="1038.3622" width="3" height="6" fill="#f5d8b9" stroke="#000" stroke-width="0.5"/>
    
    <!-- Cake the Cat (beside Fionna) -->
    <ellipse cx="36" cy="1038.3622" rx="4" ry="3" fill="#d3aa74" stroke="#000" stroke-width="0.5"/>
    <ellipse cx="38" cy="1034.3622" rx="3" ry="2.5" fill="#d3aa74" stroke="#000" stroke-width="0.5"/>
    <circle cx="38" cy="1034.3622" r="0.8" fill="#000"/>
    <circle cx="40" cy="1034.3622" r="0.8" fill="#000"/>
    <ellipse cx="39" cy="1035.3622" rx="1" ry="0.5" fill="#000"/>
    <!-- Ears -->
    <ellipse cx="36" cy="1032.3622" rx="1" ry="1.5" fill="#d3aa74" stroke="#000" stroke-width="0.3"/>
    <ellipse cx="40" cy="1032.3622" rx="1" ry="1.5" fill="#d3aa74" stroke="#000" stroke-width="0.3"/>
    <!-- Tail -->
    <path d="M 32,1038.3622 C 30,1040.3622 31,1042.3622 33,1042.3622" fill="none" stroke="#d3aa74" stroke-width="2"/>
  </g>
</svg>